<svg width="3840" height="2160" viewBox="0 0 423 342" fill="none" xmlns="http://www.w3.org/2000/svg">
<path d="M123.273 191.594L144.231 189.194C144.854 195.618 146.667 200.19 150.513 205.382C144.974 205.348 130.775 204.426 126.198 206.292L123.273 191.594Z" fill="white"/>
<path d="M278.713 188.973L297.24 190.568C297.011 196.082 296.63 201.688 295.591 207.115C287.708 206.402 279.917 205.889 272.005 205.736C276.059 200.588 278.462 195.625 278.713 188.973Z" fill="white"/>
<path d="M196.135 187.639C206.601 187.359 217.023 187.565 227.487 187.79C227.741 192.646 228.522 195.997 230.683 200.36C217.887 199.887 205.053 199.827 192.247 199.672C194.291 195.665 195.421 192.07 196.135 187.639Z" fill="white"/>
<path d="M131.689 248.408L132.075 248.045C134.285 250.484 136.251 253.123 138.255 255.731C130.705 264.918 123.4 270.988 112.013 275.124C107.34 273.122 102.417 268.792 98.304 265.778C100.097 265.355 101.886 264.895 103.623 264.278C109.552 262.17 129.185 253.71 131.689 248.408Z" fill="white"/>
<path d="M294.419 242.928C293.895 244.376 293.141 245.652 293.417 247.184C295.098 248.106 297.023 248.088 298.785 248.814L295.892 248.852L295.44 249.422C296.727 252.836 309.107 258.98 312.957 260.714C318.502 263.213 324.473 265.142 330.555 265.671C326.374 268.753 322.231 272.064 317.791 274.757C304.792 272.148 294.834 263.517 286.746 253.519C289.354 250.025 291.912 246.495 294.419 242.928Z" fill="white"/>
<path d="M285.749 82.4204C292.173 83.8071 298.962 86.8424 304.711 90.0078C308.165 97.4591 309.589 106.022 310.999 114.042C304.427 112.448 297.781 111.092 291.176 109.634C290.967 100.357 288.913 91.1057 285.749 82.4204Z" fill="white"/>
<path d="M188.534 287.616C204.836 291.194 218.846 291.019 235.134 287.479L230.881 301.521C229.601 300.835 219.797 302.887 217.357 302.992C208.783 303.364 200.579 301.874 192.184 300.368C190.894 296.136 189.571 291.918 188.534 287.616Z" fill="white"/>
<path d="M239.949 20.5656C267.931 30.8256 288.153 52.0402 300.635 78.8716C301.15 79.9814 301.652 81.0974 302.14 82.2196C294.383 79.1429 286.671 75.9729 278.543 73.9949C274.844 58.7349 264.661 43.1289 253.469 32.2982C249.146 28.1149 244.369 24.5969 239.949 20.5656Z" fill="white"/>
<path d="M192.184 300.368C200.579 301.873 208.783 303.364 217.357 302.992C219.797 302.887 229.601 300.835 230.881 301.521C226.891 315.435 219.423 329.918 211.543 341.981C202.921 329.198 196.918 314.979 192.184 300.368Z" fill="white"/>
<path d="M151.206 78.4814C152.133 80.7308 150.369 85.6274 149.909 88.0735C148.625 94.9161 148.451 101.558 149.315 108.472C137.383 110.069 125.433 113.57 113.685 116.228C114.371 107.117 115.916 98.6988 118.554 89.9508C128.648 84.3968 140.098 81.2554 151.206 78.4814Z" fill="white"/>
<path d="M313.691 201.243C321.67 199.148 329.676 196.808 337.759 195.17C334.173 198.474 320.245 200.6 314.984 201.954C316.396 204.616 317.81 208.066 320.961 208.985C326.133 210.492 332.49 205.545 338.243 206.239C336.517 206.772 334.793 207.356 333.029 207.75C341.074 215.094 349.251 220.653 360.553 221.015C347.889 229.715 333.378 233.733 318.041 233.361C320.642 236.987 323.873 239.839 327.303 242.659C318.962 247.432 308.451 250.118 298.785 248.814C297.023 248.088 295.098 248.106 293.417 247.184C293.141 245.652 293.895 244.376 294.419 242.928C295.336 241.051 296.711 239.237 297.849 237.472C304.079 239.704 309.721 241.654 316.401 242.057C314.867 240.536 313.34 238.898 312.049 237.165C309.721 234.04 306.506 228.865 307.061 224.806C308.559 222.604 310.504 223.903 312.892 224.274C321.537 225.614 329.891 224.535 337.927 221.155C335.723 220.182 333.509 219.209 331.354 218.132C323.999 214.454 316.433 209.398 313.691 201.243Z" fill="white"/>
<path d="M409.216 154.384C411.363 155.901 413.636 157.652 414.229 160.366C414.683 162.45 413.789 164.469 412.609 166.139C410.796 168.696 408.169 170.944 405.943 173.134L406.136 173.648C403.996 179.322 381.656 190.248 375.836 192.881C365.684 197.472 348.893 204.689 338.243 206.239C332.49 205.545 326.133 210.492 320.961 208.985C317.81 208.066 316.396 204.616 314.984 201.954C320.245 200.6 334.173 198.474 337.759 195.17C341.739 193.155 347.319 192.343 351.632 190.815C368.389 184.876 389.243 176.804 401.543 163.364C403.676 163.076 404.903 161.566 406.183 159.89C407.136 158.643 409.256 155.962 409.216 154.384Z" fill="white"/>
<path d="M330.555 265.671C337.877 266.248 344.657 264.982 351.704 263.181C318.622 292.607 278.3 309.658 234.887 316.855C236.244 312.393 237.674 307.955 239.178 303.541C266.938 302.101 294.732 289.563 317.791 274.757C322.231 272.064 326.374 268.753 330.555 265.671Z" fill="white"/>
<path d="M74.3152 261.72C82.2092 264.578 89.8198 266.543 98.3038 265.778C102.417 268.792 107.34 273.122 112.013 275.124C134.311 289.266 157.937 299.172 184.013 303.703C185.239 308.198 187.033 312.632 188.597 317.025C150.426 310.434 99.7299 291.96 74.3152 261.72Z" fill="white"/>
<path d="M138.255 255.731C150.257 268.178 162.092 277.667 178.147 284.335C179.997 290.831 181.871 297.295 184.013 303.703C157.937 299.172 134.311 289.266 112.013 275.124C123.4 270.988 130.705 264.918 138.255 255.731Z" fill="white"/>
<path d="M244.863 284.758C262.037 277.588 274.401 267.199 286.746 253.519C294.834 263.517 304.792 272.148 317.791 274.757C294.732 289.563 266.938 302.101 239.178 303.541C241.285 297.344 243.18 291.083 244.863 284.758Z" fill="white"/>
<path d="M10.1244 144.776C12.1164 156.614 22.0504 163.77 31.2757 170.342C55.0251 187.261 83.7938 197.562 112.211 203.296C104.382 212.476 95.8444 217.374 84.9304 221.946C92.3031 224.281 99.6471 225.906 107.418 225.902C110.16 225.9 116.38 224.336 118.463 225.263C119.012 226.569 118.782 227.574 118.254 228.869C116.749 232.558 114.12 235.749 111.591 238.777C116.391 238.885 121.13 238.921 125.925 238.634C127.984 241.762 130.092 244.868 132.074 248.045L131.688 248.408C119.202 249.27 106.804 246.653 94.6085 244.35C98.8038 241.62 102.607 238.517 106.194 235.034C90.9358 233.919 76.6451 227.716 63.3291 220.591C72.8698 218.34 80.9864 215.428 89.3838 210.309C63.0744 201.852 22.6538 184.444 5.91309 161.78C7.95709 157.492 7.14441 150.822 10.1244 144.776Z" fill="white"/>
<path d="M151.206 78.4813C193.31 68.9167 241.319 68.66 282.787 81.6833C283.807 86.1255 284.64 90.6029 285.285 95.1153C285.93 99.6273 286.385 104.159 286.651 108.709C241.745 101.825 194.127 99.412 149.315 108.472C148.451 101.558 148.625 94.916 149.909 88.0733C150.369 85.6273 152.133 80.7307 151.206 78.4813Z" fill="white"/>
<path d="M192.247 199.671C205.052 199.827 217.886 199.887 230.682 200.359C235.798 207.123 241.904 212.039 250.563 213.247C250.973 213.306 251.385 213.355 251.797 213.393C252.21 213.432 252.623 213.46 253.037 213.477C253.451 213.495 253.866 213.502 254.28 213.499C254.695 213.495 255.109 213.481 255.522 213.456C255.936 213.431 256.348 213.396 256.76 213.351C257.172 213.305 257.583 213.249 257.992 213.182C258.401 213.115 258.808 213.038 259.213 212.951C259.618 212.864 260.021 212.767 260.421 212.659C260.822 212.551 261.219 212.433 261.612 212.305C262.007 212.177 262.397 212.039 262.784 211.891C263.172 211.744 263.555 211.586 263.935 211.419C264.314 211.252 264.688 211.075 265.058 210.888C265.428 210.702 265.793 210.506 266.154 210.301C266.514 210.096 266.869 209.882 267.218 209.659C267.567 209.436 267.911 209.204 268.248 208.963C268.586 208.723 268.917 208.474 269.242 208.217C270.216 207.453 271.116 206.595 272.005 205.735C279.916 205.888 287.708 206.401 295.59 207.115C294.146 215.251 290.868 223.261 286.989 230.525C276.044 251.025 257.181 267.231 234.847 273.979C234.208 274.172 233.567 274.358 232.923 274.535C232.28 274.713 231.634 274.882 230.986 275.043C230.338 275.205 229.688 275.358 229.036 275.503C228.385 275.648 227.732 275.785 227.076 275.914C226.421 276.043 225.765 276.164 225.106 276.276C224.448 276.389 223.789 276.493 223.128 276.589C222.468 276.685 221.806 276.773 221.143 276.852C220.48 276.932 219.816 277.003 219.152 277.066C218.487 277.129 217.821 277.183 217.155 277.229C216.489 277.276 215.823 277.314 215.156 277.343C214.489 277.373 213.821 277.395 213.154 277.407C212.486 277.42 211.819 277.425 211.151 277.421C210.484 277.418 209.816 277.406 209.148 277.385C208.481 277.365 207.814 277.336 207.148 277.299C206.481 277.263 205.815 277.217 205.15 277.163C204.484 277.11 203.819 277.048 203.156 276.978C202.492 276.908 201.829 276.829 201.166 276.742C200.505 276.655 199.844 276.561 199.184 276.457C198.524 276.354 197.866 276.243 197.209 276.123C196.553 276.003 195.898 275.875 195.244 275.739C194.59 275.603 193.938 275.459 193.288 275.307C192.638 275.154 191.99 274.994 191.344 274.825C190.698 274.657 190.054 274.481 189.412 274.296C188.771 274.112 188.131 273.919 187.494 273.719C186.858 273.518 186.223 273.31 185.592 273.093C184.96 272.877 184.331 272.653 183.705 272.421C183.079 272.189 182.456 271.949 181.836 271.701C181.216 271.454 180.599 271.199 179.986 270.935C179.372 270.672 178.762 270.402 178.154 270.123C177.548 269.845 176.944 269.559 176.344 269.266C175.744 268.973 175.148 268.672 174.556 268.364C173.964 268.056 173.376 267.74 172.791 267.417C148.736 254.437 133.912 231.947 126.198 206.292C130.774 204.426 144.974 205.347 150.513 205.382C151.692 206.713 153.182 207.971 154.618 209.013C160.12 213.003 166.638 214.353 173.306 213.165C181.805 211.649 187.468 206.531 192.247 199.671Z" fill="white"/>
<path d="M209.928 202.553C211.467 202.538 212.878 202.62 214.395 202.888C218.109 205.296 223.252 221.062 225.102 225.738C220.9 225.439 216.663 225.524 212.451 225.507C207.818 225.501 203.165 225.728 198.532 225.859C200.499 221.296 206.859 204.249 209.928 202.553Z" fill="#221616"/>
<path d="M265.635 233.818C262.967 229.79 258.748 227.793 256.085 224.116L256.725 223.777C260.13 224.273 262.383 225.203 265.255 227.108C266.749 228.558 268.556 230.092 269.66 231.87C270.601 233.384 270.362 234.348 269.94 235.93C268.208 238.122 265.891 238.964 263.356 239.91C235.935 250.148 207.903 251.77 179.34 245.799C171.287 244.116 162.525 241.89 155.065 238.389C153.441 237.627 151.548 236.658 150.913 234.882C151.005 233.888 151.188 233.23 151.713 232.366C154.644 227.55 159.507 225.239 164.779 223.921L166.608 224.042C166.492 224.116 166.37 224.18 166.261 224.262C161.793 227.602 159.596 229.327 155.961 233.666C159.745 235.317 163.529 236.812 167.481 238.014C194.579 246.258 240.096 247.475 265.635 233.818Z" fill="#221616"/>
<path d="M89.842 105.277C92.514 76.2088 110.521 46.7961 132.661 28.4074C133.438 27.7626 134.223 27.1274 135.017 26.5021C135.81 25.8768 136.61 25.2612 137.418 24.6555C138.226 24.0497 139.042 23.4539 139.865 22.8681C140.687 22.2823 141.517 21.7068 142.354 21.1415C143.191 20.5761 144.035 20.0212 144.885 19.4768C145.736 18.9319 146.593 18.3977 147.457 17.8741C148.321 17.3506 149.191 16.8377 150.067 16.3354C150.943 15.8332 151.825 15.3419 152.713 14.8614C153.602 14.381 154.496 13.9115 155.396 13.4528C156.296 12.9941 157.201 12.5466 158.112 12.1101C159.023 11.6737 159.939 11.2486 160.86 10.8348C161.781 10.421 162.707 10.0186 163.639 9.62745C164.57 9.23634 165.506 8.85655 166.446 8.48811C167.386 8.12011 168.331 7.76366 169.28 7.41877C170.229 7.07388 171.183 6.74055 172.14 6.41877C173.097 6.09744 174.059 5.7879 175.024 5.49012C175.989 5.1919 176.957 4.90589 177.929 4.63211C178.901 4.35789 179.876 4.09567 180.855 3.84545C181.833 3.59522 182.815 3.35701 183.799 3.13078C184.783 2.90501 185.77 2.69123 186.76 2.48945C187.749 2.28723 188.741 2.09744 189.735 1.92011C190.73 1.74278 191.726 1.57744 192.724 1.42411C193.722 1.27122 194.722 1.13056 195.724 1.00211C196.726 0.873667 197.729 0.757665 198.733 0.654109C199.738 0.550109 200.744 0.458552 201.751 0.379441C202.757 0.30033 203.765 0.233671 204.773 0.179449C205.782 0.124782 206.791 0.082775 207.8 0.0534417C208.809 0.0236639 209.819 0.00632857 210.829 0.00143968C211.839 -0.00344921 212.849 0.00411425 213.859 0.0241143C214.869 0.0441143 215.878 0.0765561 216.887 0.121445C217.896 0.166334 218.904 0.223448 219.911 0.292781C220.919 0.362559 221.925 0.444551 222.931 0.538773C255.935 3.70277 285.991 19.2095 307.013 44.9001C321.24 62.2881 331.323 84.9688 333.365 107.425C351.037 109.956 370.136 117.326 386.476 124.196C388.569 125.076 392.763 126.369 394.316 127.968C401.036 126.036 407.316 124.727 413.796 128.396C417.823 130.677 420.61 134.521 421.763 138.984C423.763 146.706 420.996 155.081 417.049 161.714C414.989 165.175 410.116 172.356 406.136 173.648L405.943 173.134C408.17 170.944 410.796 168.696 412.61 166.139C413.79 164.469 414.683 162.45 414.229 160.366C413.636 157.652 411.363 155.901 409.216 154.384C409.256 155.962 407.136 158.643 406.183 159.89C404.903 161.566 403.676 163.076 401.543 163.364C405.796 160.021 409.503 153.634 410.85 148.451C411.57 145.67 412.269 141.11 410.629 138.55C410.016 137.597 409.21 137.135 408.103 136.963C403.756 136.29 401.556 139.23 398.403 141.342L398.069 141.559C396.149 139.885 391.85 138.646 389.436 137.612C367.643 128.287 346.145 121.724 323.299 115.466C319.206 92.4775 313.381 70.5982 298.229 52.2515C279.404 29.4568 250.22 17.2668 221.336 14.4788C227.267 16.9541 233.875 18.2908 239.949 20.5654C244.369 24.5968 249.146 28.1148 253.469 32.2981C264.661 43.1288 274.844 58.7348 278.543 73.9948C238.818 64.3881 201.964 62.0788 161.54 70.1342C147.413 72.9488 133.678 76.6621 120.496 82.5548C133.303 52.8935 151.536 32.8568 181.831 20.8548C188.009 18.4075 194.383 16.5781 200.801 14.8808C174.273 15.7541 148.541 28.0428 130.457 47.3615C112.725 66.3035 103.274 89.2728 100.761 114.999C74.0693 120.774 46.6906 130.032 22.2106 142.23C22.7913 140.188 23.4046 138.975 22.9133 136.886C21.9746 136.01 21.5186 135.46 20.1373 135.454C17.6093 135.442 14.0866 137.764 12.5113 139.686C11.3359 141.12 10.7446 143.054 10.1246 144.776C7.14458 150.822 7.95725 157.492 5.91325 161.78C1.81592 155.333 -1.22876 147.626 0.489238 139.88C0.562127 139.556 0.643231 139.233 0.732565 138.912C0.821898 138.592 0.919244 138.274 1.02458 137.958C1.12991 137.643 1.24302 137.33 1.36391 137.02C1.48525 136.71 1.61413 136.403 1.75057 136.1C1.88702 135.797 2.03102 135.497 2.18258 135.2C2.33413 134.904 2.49302 134.612 2.65924 134.324C2.82546 134.036 2.9988 133.752 3.17924 133.472C3.35969 133.193 3.54701 132.918 3.74123 132.648C3.93546 132.378 4.13659 132.113 4.34459 131.853C4.55214 131.593 4.76613 131.338 4.98658 131.089C5.20702 130.84 5.43347 130.597 5.66592 130.359C5.89881 130.121 6.13748 129.889 6.38192 129.663C6.62637 129.438 6.87614 129.218 7.13125 129.005C7.38681 128.792 7.64748 128.585 7.91325 128.385C8.17903 128.185 8.44969 127.992 8.72525 127.805C9.0008 127.619 9.28081 127.439 9.56525 127.267C14.5173 124.26 20.3746 123.655 25.9459 125.051C27.0219 125.329 28.0844 125.652 29.1333 126.018C48.0853 116.826 69.4853 110.54 89.842 105.277Z" fill="white"/>
<path d="M28.4924 152.784C97.2925 119.694 185.656 108.241 261.115 116.592C301.469 121.057 342.352 129.932 379.763 145.991C383.623 147.647 391.589 150.291 394.203 153.562C394.149 153.753 394.109 153.946 394.049 154.135C393.483 155.875 391.523 157.039 389.976 157.793C389.383 160.167 383.836 163.14 381.629 164.449C360.26 177.127 335.171 184.483 311.011 189.855C316.789 183.294 326.903 172.875 327.487 164.019C319.755 171.242 308.982 179.613 297.893 179.273C289.432 179.013 280.881 177.348 272.393 176.808C249.978 175.534 227.544 174.903 205.093 174.915C187.811 174.909 170.548 175.464 153.303 176.581C145.894 177.092 138.492 177.689 131.097 178.37C126.368 178.818 119.8 180.3 115.165 179.555C106.636 178.185 99.4232 169.755 92.9205 164.714C95.2871 174.264 103.755 183.605 110.595 190.378C93.6818 186.705 76.2371 181.059 60.7211 173.321C49.3391 167.53 38.2684 161.05 28.4924 152.784Z" fill="white"/>
<path d="M209.715 136.898C252.161 131.737 288.904 132.106 330.949 140.427C342.735 142.759 354.341 145.314 365.823 148.918C373.323 151.272 383.396 153.591 389.976 157.793C389.383 160.166 383.836 163.14 381.629 164.449C360.26 177.127 335.171 184.482 311.011 189.855C316.789 183.294 326.903 172.874 327.487 164.018C319.755 171.242 308.982 179.613 297.893 179.273C289.432 179.013 280.881 177.348 272.393 176.808C249.978 175.534 227.544 174.903 205.093 174.915C187.811 174.909 170.548 175.464 153.303 176.58C145.894 177.092 138.492 177.688 131.097 178.37C126.369 178.818 119.801 180.3 115.165 179.555C106.637 178.185 99.4232 169.755 92.9205 164.714C95.2872 174.264 103.755 183.604 110.595 190.378C93.6819 186.704 76.2372 181.058 60.7212 173.321C71.0699 169.209 82.3072 166.296 93.1305 163.814C147.339 151.412 206.871 149.034 262.096 154.437C274.552 155.733 286.984 157.224 299.393 158.911C308.239 160.167 318.293 162.666 327.219 162.176C286.461 145.419 253.127 140.257 209.715 136.898Z" fill="white"/>
</svg>
